<svg width="64" height="64" viewBox="0 0 64 64" fill="none" xmlns="http://www.w3.org/2000/svg">
  <rect width="64" height="64" rx="8" fill="#0F172A"/>
  <path d="M47.5 22.05V24C47.4984 28.346 46.0668 32.5544 43.4353 35.9738C40.8038 39.3932 37.1354 41.8212 33.0081 42.8C28.8808 43.7787 24.5449 43.2509 20.7098 41.3037C16.8747 39.3564 13.7638 36.0981 11.8892 32.0219C10.0146 27.9457 9.48775 23.3065 10.3889 18.8722C11.2901 14.4379 13.5621 10.4302 16.8152 7.5072C20.0684 4.58421 24.1291 2.91209 28.44 2.77871C32.7508 2.64533 36.9126 4.0589 40.32 6.79997" stroke="#6366F1" stroke-width="4" stroke-linecap="round" stroke-linejoin="round"/>
  <path d="M47.5 10L32.5 25.025L27.5 20.025" stroke="#6366F1" stroke-width="4" stroke-linecap="round" stroke-linejoin="round"/>
  <g filter="url(#filter0_d_1_2)">
    <circle cx="49" cy="45" r="10" fill="#6366F1"/>
    <path d="M49.2273 40.2727V44.8864H45.5" stroke="white" stroke-width="2" stroke-linecap="round" stroke-linejoin="round"/>
    <path d="M45.5 49.5C47.5833 49.5 49.25 47.8333 49.25 45.75C49.25 43.6667 47.5833 42 45.5 42" stroke="white" stroke-width="2" stroke-linecap="round" stroke-linejoin="round"/>
  </g>
  <defs>
    <filter id="filter0_d_1_2" x="35" y="35" width="28" height="28" filterUnits="userSpaceOnUse" color-interpolation-filters="sRGB">
      <feFlood flood-opacity="0" result="BackgroundImageFix"/>
      <feColorMatrix in="SourceAlpha" type="matrix" values="0 0 0 0 0 0 0 0 0 0 0 0 0 0 0 0 0 0 127 0" result="hardAlpha"/>
      <feOffset dy="4"/>
      <feGaussianBlur stdDeviation="2"/>
      <feComposite in2="hardAlpha" operator="out"/>
      <feColorMatrix type="matrix" values="0 0 0 0 0 0 0 0 0 0 0 0 0 0 0 0 0 0 0.25 0"/>
      <feBlend mode="normal" in2="BackgroundImageFix" result="effect1_dropShadow_1_2"/>
      <feBlend mode="normal" in="SourceGraphic" in2="effect1_dropShadow_1_2" result="shape"/>
    </filter>
  </defs>
</svg>
